<?xml version="1.0" encoding="UTF-8"?>
<svg xmlns="http://www.w3.org/2000/svg" id="Layer_2" viewBox="0 0 237.6 69.7">
  <defs>
    <style>.cls-1{fill:#1d1d1b;}.cls-2{fill:#459ef4;}.cls-2,.cls-3,.cls-4,.cls-5,.cls-6,.cls-7,.cls-8,.cls-9,.cls-10,.cls-11,.cls-12{fill-rule:evenodd;}.cls-3{fill:#062efe;}.cls-4{fill:#a69df7;}.cls-5{fill:#9185f5;}.cls-6{fill:#64baff;}.cls-7{fill:#6924f2;}.cls-8{fill:#7d61fa;}.cls-9{fill:#0060f1;}.cls-10{fill:#027bff;}.cls-11{fill:#0053ff;}.cls-12{fill:#0500ff;}</style>
  </defs>
  <g id="Capa_1">
    <path class="cls-9" d="m51.7,49.8l-17.3-10v19.9l17.3-9.9Z"></path>
    <path class="cls-2" d="m34.5,59.8l-17.2,9.9v-19.9l17.2,10Z"></path>
    <path class="cls-10" d="m17.2,49.8l17.2-10v19.9l-17.2-9.9Z"></path>
    <path class="cls-6" d="m0,59.8l17.3-10v19.9L0,59.8Z"></path>
    <path class="cls-5" d="m0,20l17.3-10v19.9L0,20Z"></path>
    <path class="cls-4" d="m17.2,10L0,0v20l17.2-10Z"></path>
    <path class="cls-8" d="m17.2,29.9L0,20v19.9l17.2-10Z"></path>
    <path class="cls-12" d="m34.5,20l-17.2,10,17.2,9.9v-19.9Z"></path>
    <path class="cls-11" d="m34.5,39.9l17.3-10v19.9l-17.3-9.9Z"></path>
    <path class="cls-3" d="m51.7,29.9l-17.2-9.9v19.9l17.2-10Z"></path>
    <path class="cls-7" d="m0,39.9l17.3-9.9v19.9L0,39.9Z"></path>
    <path class="cls-1" d="m88,34.5c2.7,1.5,4,3.8,4,6.9,0,2.6-.9,4.7-2.7,6.3-1.8,1.6-4,2.5-6.7,2.5h-12.9v-30.2h11.9c2.6,0,4.8.8,6.5,2.4.9.8,1.6,1.7,2,2.7.5,1.1.7,2.2.7,3.3,0,2.6-.9,4.6-2.8,6.1Zm-6.4-8.9h-6v6.6h6c.4,0,.9-.1,1.2-.2.4-.2.7-.4,1-.7s.6-.7.7-1.1c.2-.4.2-.8.2-1.3,0-.4-.1-.9-.2-1.3-.2-.4-.4-.8-.7-1.1-.3-.3-.7-.6-1.1-.7-.2-.2-.6-.3-1.1-.2h0Zm.9,19c.5,0,.9-.1,1.4-.2.4-.2.8-.4,1.2-.8.3-.3.6-.8.8-1.2.2-.4.2-.9.2-1.4s-.1-.9-.2-1.4c-.2-.4-.4-.8-.8-1.2-.3-.3-.7-.6-1.1-.8s-.9-.3-1.4-.3h-6.9v7.1h6.8v.2Z"></path>
    <path class="cls-1" d="m105.3,44.5h12.7v5.7h-18.7v-30.2h18.5v5.7h-12.5v6.4h11.4v5.6h-11.4v6.8Z"></path>
    <path class="cls-1" d="m155.2,20v30.2h-5.9v-19.6l-8.5,14h-.7l-8.5-14v19.6h-6v-30.2h6.1l8.7,14.3,8.6-14.3h6.2Z"></path>
    <path class="cls-1" d="m189.7,46.3c-3.1,3-6.8,4.5-11.1,4.5s-8.1-1.5-11.1-4.5c-3-3.1-4.5-6.8-4.5-11.2s1.5-8.1,4.5-11.1c3.1-3,6.8-4.6,11.1-4.6s8.1,1.5,11.1,4.6c3.1,3,4.6,6.7,4.6,11.1s-1.5,8.1-4.6,11.2Zm-18-4.1c1.9,1.8,4.2,2.8,7,2.8s5.1-.9,7-2.8c1.9-1.9,2.8-4.2,2.8-7.1s-.9-5.3-2.8-7.1c-1.9-1.9-4.2-2.8-7-2.8-1.3,0-2.6.2-3.8.7s-2.3,1.2-3.2,2.1c-1.9,1.9-2.8,4.2-2.8,7.1-.1,2.9.9,5.3,2.8,7.1h0Z"></path>
    <path class="cls-1" d="m220.2,34.5c2.6,1.5,4,3.8,4,6.9,0,2.6-.9,4.7-2.7,6.3s-4,2.5-6.7,2.5h-12.8v-30.2h11.9c2.6,0,4.8.8,6.5,2.4,1.8,1.6,2.7,3.6,2.7,6.1,0,2.5-1,4.5-2.9,6Zm-6.3-8.9h-6v6.6h6c.4,0,.9-.1,1.2-.2.4-.2.8-.4,1-.7.3-.3.6-.7.7-1.1.2-.4.2-.8.2-1.3,0-.4-.1-.9-.2-1.3-.2-.4-.4-.8-.7-1.1s-.7-.6-1.1-.7c-.2-.2-.7-.3-1.1-.2h0Zm.9,19c.5,0,.9-.1,1.4-.2.4-.2.8-.4,1.1-.8.3-.3.6-.8.8-1.2s.3-.9.2-1.4c0-.5-.1-.9-.2-1.4-.2-.4-.4-.8-.8-1.2-.3-.3-.7-.6-1.1-.8-.4-.2-.9-.3-1.4-.3h-6.9v7.1h6.9v.2Z"></path>
    <path class="cls-1" d="m231.6,20h6v30.2h-6v-30.2Z"></path>
  </g>
</svg>
