<svg width="35" height="34" viewBox="0 0 35 34" fill="none" xmlns="http://www.w3.org/2000/svg">
<path d="M19.5192 25.5C19.5192 25.888 19.4008 26.2672 19.1789 26.5898C18.9571 26.9123 18.6417 27.1638 18.2727 27.3122C17.9038 27.4607 17.4978 27.4995 17.1061 27.4238C16.7144 27.3482 16.3546 27.1613 16.0722 26.887C15.7898 26.6127 15.5975 26.2632 15.5196 25.8827C15.4417 25.5022 15.4816 25.1078 15.6345 24.7493C15.7873 24.3909 16.0461 24.0846 16.3782 23.869C16.7102 23.6535 17.1006 23.5385 17.5 23.5385C18.0355 23.5385 18.5491 23.7451 18.9278 24.113C19.3065 24.4808 19.5192 24.9798 19.5192 25.5ZM17.5 7.84615C13.788 7.84615 10.7692 10.4861 10.7692 13.7308V14.3846C10.7692 14.7314 10.9111 15.0641 11.1635 15.3093C11.416 15.5545 11.7584 15.6923 12.1154 15.6923C12.4724 15.6923 12.8148 15.5545 13.0673 15.3093C13.3197 15.0641 13.4615 14.7314 13.4615 14.3846V13.7308C13.4615 11.9327 15.2738 10.4615 17.5 10.4615C19.7262 10.4615 21.5385 11.9327 21.5385 13.7308C21.5385 15.5288 19.7262 17 17.5 17C17.143 17 16.8006 17.1378 16.5481 17.383C16.2957 17.6283 16.1539 17.9609 16.1539 18.3077V19.6154C16.1539 19.9622 16.2957 20.2948 16.5481 20.5401C16.8006 20.7853 17.143 20.9231 17.5 20.9231C17.857 20.9231 18.1994 20.7853 18.4519 20.5401C18.7043 20.2948 18.8462 19.9622 18.8462 19.6154V19.4977C21.9154 18.9501 24.2308 16.5717 24.2308 13.7308C24.2308 10.4861 21.212 7.84615 17.5 7.84615ZM35 17C35 20.3623 33.9736 23.6491 32.0507 26.4447C30.1278 29.2403 27.3947 31.4193 24.197 32.7059C20.9993 33.9926 17.4806 34.3293 14.0859 33.6733C10.6913 33.0174 7.57306 31.3983 5.12564 29.0208C2.67822 26.6433 1.01151 23.6142 0.336265 20.3165C-0.338976 17.0189 0.00758248 13.6007 1.33212 10.4944C2.65665 7.38804 4.89967 4.733 7.77753 2.86502C10.6554 0.997032 14.0388 0 17.5 0C22.1398 0.0047597 26.5881 1.79735 29.869 4.98444C33.1498 8.17153 34.9951 12.4928 35 17ZM32.3077 17C32.3077 14.155 31.4392 11.3739 29.8121 9.00833C28.1851 6.6428 25.8724 4.79908 23.1667 3.71035C20.4609 2.62161 17.4836 2.33675 14.6112 2.89178C11.7388 3.44681 9.10028 4.81682 7.02939 6.82854C4.95849 8.84026 3.5482 11.4034 2.97684 14.1937C2.40548 16.984 2.69872 19.8763 3.81948 22.5048C4.94024 25.1332 6.83818 27.3798 9.27329 28.9604C11.7084 30.541 14.5713 31.3846 17.5 31.3846C21.4259 31.3803 25.1897 29.8634 27.9657 27.1667C30.7417 24.47 32.3032 20.8137 32.3077 17Z" fill="white"/>
</svg>
