<svg width="167" height="57" viewBox="0 0 167 57" fill="none" xmlns="http://www.w3.org/2000/svg">
<path d="M80.952 43H72.024V18.52H81.096C84.864 18.52 87.66 19.66 89.484 21.94C91.308 24.22 92.22 27.112 92.22 30.616C92.22 34.408 91.236 37.42 89.268 39.652C87.3 41.884 84.528 43 80.952 43ZM81.132 22.48H76.668V39.076H80.88C82.848 39.076 84.42 38.428 85.596 37.132C86.796 35.836 87.396 33.664 87.396 30.616C87.396 28.072 86.892 26.08 85.884 24.64C84.876 23.2 83.292 22.48 81.132 22.48ZM114.473 43H97.3365V18.52H111.953L112.673 22.192H101.981V28.78H108.533L109.289 32.488H101.981V39.364H113.717L114.473 43ZM128.731 35.584L122.863 28.06V43H118.219V18.52H121.171L129.451 29.824L136.975 18.52H139.819V43H135.103V28.888L130.531 35.332L128.731 35.584ZM154.421 24.928L151.217 33.46H157.697L154.421 24.928ZM156.509 18.52L166.013 42.352L161.333 43L159.137 37.24H149.849L147.689 43H143.009L152.549 18.52H156.509Z" fill="white"/>
<circle cx="28.5" cy="28.5" r="28.5" fill="#6B3FD5"/>
<circle cx="28.5" cy="28.5" r="21.375" fill="#7D61FA"/>
<circle cx="28.5" cy="28.5" r="16.625" fill="#C7E5FF"/>
</svg>
