<svg width="209" height="57" viewBox="0 0 209 57" fill="none" xmlns="http://www.w3.org/2000/svg">
<path d="M71.052 30.868C71.052 27.1 72.036 24.028 74.004 21.652C75.972 19.252 78.744 18.016 82.32 17.944C86.16 17.944 89.004 19.18 90.852 21.652C92.7 24.124 93.624 27.112 93.624 30.616C93.624 34.408 92.628 37.504 90.636 39.904C88.668 42.304 85.896 43.504 82.32 43.504C78.504 43.504 75.672 42.28 73.824 39.832C71.976 37.36 71.052 34.372 71.052 30.868ZM75.912 30.832C75.912 33.4 76.428 35.5 77.46 37.132C78.492 38.764 80.1 39.58 82.284 39.58C84.252 39.58 85.824 38.848 87 37.384C88.176 35.92 88.764 33.664 88.764 30.616C88.764 28.072 88.248 25.984 87.216 24.352C86.184 22.72 84.576 21.904 82.392 21.904C80.472 21.904 78.912 22.708 77.712 24.316C76.512 25.924 75.912 28.096 75.912 30.832ZM109.22 35.584L103.352 28.06V43H98.7076V18.52H101.66L109.94 29.824L117.464 18.52H120.308V43H115.592V28.888L111.02 35.332L109.22 35.584ZM146.969 18.52V43H142.289L130.949 26.62V43H126.305V18.52H130.949L142.289 34.864V18.52H146.969ZM157.668 18.52V43H153.024V18.52H157.668ZM181.363 18.52C183.739 18.52 185.671 19.048 187.159 20.104C188.647 21.136 189.391 22.888 189.391 25.36C189.391 26.272 189.175 27.1 188.743 27.844C188.335 28.564 187.795 29.188 187.123 29.716C188.227 30.292 189.127 31.072 189.823 32.056C190.543 33.04 190.903 34.288 190.903 35.8C190.903 38.056 190.111 39.82 188.527 41.092C186.967 42.364 184.879 43 182.263 43H172.219V18.52H181.363ZM180.679 22.408H176.863V28.492H180.319C181.615 28.492 182.623 28.252 183.343 27.772C184.087 27.268 184.459 26.488 184.459 25.432C184.459 24.28 184.123 23.488 183.451 23.056C182.779 22.624 181.855 22.408 180.679 22.408ZM182.227 32.272H176.863V39.148H181.903C183.151 39.148 184.147 38.86 184.891 38.284C185.659 37.708 186.043 36.892 186.043 35.836C186.043 34.684 185.695 33.808 184.999 33.208C184.303 32.584 183.379 32.272 182.227 32.272ZM200.313 18.52V43H195.669V18.52H200.313Z" fill="white"/>
<circle cx="28.5" cy="28.5" r="28.5" fill="#6B3FD5"/>
<circle cx="28.5" cy="28.5" r="21.375" fill="#7D61FA"/>
<circle cx="28.5" cy="28.5" r="16.625" fill="#C7E5FF"/>
</svg>
