<svg width="20" height="20" viewBox="0 0 20 20" fill="none" xmlns="http://www.w3.org/2000/svg">
<path d="M19.3013 18.4796L14.6073 13.7865C15.9678 12.1531 16.6462 10.058 16.5014 7.93716C16.3566 5.8163 15.3998 3.8329 13.8299 2.39957C12.26 0.966244 10.1979 0.193337 8.07263 0.241637C5.94738 0.289937 3.92256 1.15572 2.41939 2.65889C0.916222 4.16206 0.0504346 6.18688 0.0021347 8.31214C-0.0461652 10.4374 0.726742 12.4995 2.16007 14.0694C3.5934 15.6393 5.5768 16.5961 7.69766 16.7409C9.81853 16.8857 11.9136 16.2073 13.547 14.8468L18.2401 19.5409C18.3098 19.6105 18.3925 19.6658 18.4836 19.7035C18.5746 19.7412 18.6722 19.7606 18.7707 19.7606C18.8693 19.7606 18.9669 19.7412 19.0579 19.7035C19.1489 19.6658 19.2317 19.6105 19.3013 19.5409C19.371 19.4712 19.4263 19.3884 19.464 19.2974C19.5017 19.2064 19.5211 19.1088 19.5211 19.0102C19.5211 18.9117 19.5017 18.8141 19.464 18.7231C19.4263 18.632 19.371 18.5493 19.3013 18.4796ZM1.52072 8.51022C1.52072 7.1752 1.9166 5.87016 2.6583 4.76012C3.4 3.65009 4.45421 2.78493 5.68761 2.27404C6.92101 1.76315 8.27821 1.62947 9.58758 1.88992C10.897 2.15037 12.0997 2.79325 13.0437 3.73725C13.9877 4.68126 14.6306 5.88399 14.891 7.19336C15.1515 8.50274 15.0178 9.85994 14.5069 11.0933C13.996 12.3267 13.1309 13.3809 12.0208 14.1226C10.9108 14.8643 9.60575 15.2602 8.27072 15.2602C6.48112 15.2582 4.76538 14.5464 3.49994 13.281C2.2345 12.0156 1.52271 10.2998 1.52072 8.51022Z" fill="white"/>
</svg>
